<?xml version="1.0" encoding="UTF-8" standalone="no"?>
<!-- Created with Inkscape (http://www.inkscape.org/) -->

<svg
   width="254.15166mm"
   height="254.1517mm"
   viewBox="0 0 254.15166 254.1517"
   version="1.1"
   id="svg1"
   xml:space="preserve"
   inkscape:version="1.3 (0e150ed6c4, 2023-07-21)"
   sodipodi:docname="oixs-logo.svg"
   xmlns:inkscape="http://www.inkscape.org/namespaces/inkscape"
   xmlns:sodipodi="http://sodipodi.sourceforge.net/DTD/sodipodi-0.dtd"
   xmlns="http://www.w3.org/2000/svg"
   xmlns:svg="http://www.w3.org/2000/svg"><sodipodi:namedview
     id="namedview1"
     pagecolor="#ffffff"
     bordercolor="#666666"
     borderopacity="1.0"
     inkscape:showpageshadow="2"
     inkscape:pageopacity="0.0"
     inkscape:pagecheckerboard="0"
     inkscape:deskcolor="#d1d1d1"
     inkscape:document-units="mm"
     inkscape:zoom="0.16"
     inkscape:cx="12071.875"
     inkscape:cy="1196.875"
     inkscape:current-layer="layer7"
     showgrid="false" /><defs
     id="defs1"><marker
       style="overflow:visible"
       id="RoundedArrow"
       refX="0"
       refY="0"
       orient="auto-start-reverse"
       inkscape:stockid="Rounded arrow"
       markerWidth="1"
       markerHeight="1"
       viewBox="0 0 1 1"
       inkscape:isstock="true"
       inkscape:collect="always"
       preserveAspectRatio="xMidYMid"><path
         transform="scale(0.7)"
         d="m -0.21114562,-4.1055728 6.42229122,3.21114561 a 1,1 90 0 1 0,1.78885438 L -0.21114562,4.1055728 A 1.236068,1.236068 31.717474 0 1 -2,3 v -6 a 1.236068,1.236068 148.28253 0 1 1.78885438,-1.1055728 z"
         style="fill:context-stroke;fill-rule:evenodd;stroke:none"
         id="path222" /></marker><filter
       style="color-interpolation-filters:sRGB"
       inkscape:label="Drop Shadow"
       id="filter198"
       x="-0.032877232"
       y="-0.030013748"
       width="1.0657545"
       height="1.0600275"><feFlood
         result="flood"
         in="SourceGraphic"
         flood-opacity="0.650980"
         flood-color="rgb(0,0,0)"
         id="feFlood197" /><feGaussianBlur
         result="blur"
         in="SourceGraphic"
         stdDeviation="3.000000"
         id="feGaussianBlur197" /><feOffset
         result="offset"
         in="blur"
         dx="-0.000000"
         dy="0.000000"
         id="feOffset197" /><feComposite
         result="comp1"
         operator="in"
         in="flood"
         in2="offset"
         id="feComposite197" /><feComposite
         result="comp2"
         operator="over"
         in="SourceGraphic"
         in2="comp1"
         id="feComposite198" /></filter></defs><g
     inkscape:groupmode="layer"
     id="layer7"
     inkscape:label="Layer 7"
     transform="translate(-3090.7969,-339.78725)"><rect
       style="display:none;fill:#ffffff;stroke:none;stroke-width:9.26042;stroke-dasharray:none"
       id="rect131"
       width="490.56702"
       height="423.05975"
       x="2939.6946"
       y="236.29636" /><path
       id="path184"
       style="display:inline;fill:#e6e6e6;stroke:none;stroke-width:15;stroke-linecap:round;stroke-linejoin:miter;stroke-dasharray:none;filter:url(#filter198)"
       d="m 3215.9043,346.87305 c -17.2639,0.81667 -33.6398,11.08319 -42.2076,26.042 -5.9032,10.22835 -8.2782,22.18299 -8.124,33.90995 0.025,13.09154 0.05,26.18307 0.076,39.27461 -12.481,12.62426 -25.4435,24.82676 -36.8874,38.42311 -9.371,13.73548 -12.4727,31.73637 -7.6049,47.70311 3.238,10.46101 10.3586,19.44057 19.1173,25.87769 24.6938,21.12767 58.2551,31.6127 90.5798,27.93568 27.172,-2.89218 53.3091,-15.30834 72.4247,-34.88392 19.4895,-19.70807 31.9088,-46.33882 34.1497,-73.99144 2.2364,-25.64912 -4.015,-52.01443 -17.8111,-73.7792 -13.7077,-21.87915 -34.5974,-39.24703 -58.7749,-48.38515 -14.3038,-5.46286 -29.6359,-8.12274 -44.9373,-8.12644 z" /><path
       style="fill:#e6e6e6;stroke:none;stroke-width:0.264583px;stroke-linecap:butt;stroke-linejoin:miter;stroke-opacity:1"
       d="m 3145.3729,518.82684 26.2242,26.22432 73.5401,-73.54017 v -97.06175 h -44.5323 v 90.20532 z"
       id="path185" /><circle
       style="display:none;fill:none;stroke:none;stroke-width:15;stroke-linecap:round;stroke-linejoin:miter;stroke-dasharray:none"
       id="circle185"
       cx="3217.8726"
       cy="466.86307"
       r="117.99821"
       inkscape:label="outer circle"
       inkscape:export-filename="../img/oixs-small-1.svg"
       inkscape:export-xdpi="3.4441197"
       inkscape:export-ydpi="3.4441197" /><path
       style="fill:#000080;stroke:none;stroke-width:0.264583px;stroke-linecap:butt;stroke-linejoin:miter;stroke-opacity:1"
       d="m 3153.714,501.69595 34.3958,-41.94574 -0.7512,-4.73575 7.8965,-59.82304 15.3647,-16.56786 12.2512,-4.17433 16.4103,15.342 1.661,54.23693 -7.0524,38.73013 -5.5301,14.64144 -33.2512,24.13979 -16.101,16.10119 -19.1172,-4.29623 -14.5174,-20.77169 z"
       id="path201" /><path
       id="path187"
       style="color:#000000;display:inline;fill:#000080;stroke:none;stroke-linecap:round;-inkscape-stroke:none"
       d="m 3217.0937,368.47453 c -8.6086,0.17782 -16.8189,4.72936 -22.0352,11.49518 -4.5316,5.76075 -7.1162,13.0211 -7.6308,20.22357 -0.2068,3.42752 -0.039,6.96301 -0.079,10.43826 0.022,11.02382 0,33.35907 0.01,44.38291 4.3448,-4.34771 9.3754,-19.39007 15.0254,-21.85828 -0.059,-4.64616 0,-9.30406 -0.029,-13.95468 0.011,-6.30889 -0.028,-12.6221 0.1352,-18.92773 0.5259,-5.66988 3.2545,-11.37303 8.1135,-14.55147 4.2147,-2.93175 10.2153,-2.98907 14.4447,-0.0532 4.9029,3.15201 7.686,8.88094 8.1915,14.58016 0.3365,3.79395 0.053,7.60719 0.1523,11.40962 -0.015,17.96892 0.046,35.9401 -0.093,53.90749 -0.3955,5.88533 -3.1665,11.84646 -8.1799,15.16417 -4.2345,2.85303 -10.2027,2.97613 -14.4243,0.0273 -3.3875,-2.16168 -5.7158,-5.65877 -7.1269,-9.36338 -1.5899,1.69377 -3.3132,3.26953 -4.9458,4.92721 -2.0845,2.05877 -4.1689,4.11754 -6.2534,6.17631 3.713,6.3982 9.7904,11.77743 16.8945,14.09179 8.3657,2.76991 17.9109,1.23447 25.0228,-3.97776 8.805,-6.41099 13.9366,-17.24342 14.0463,-28.05953 0.1564,-6.09571 -0.012,-12.19403 0.058,-18.29083 -0.012,-15.4094 0.058,-30.82063 -0.1035,-46.22873 -0.6332,-9.14174 -4.6403,-18.04897 -11.5061,-24.20047 -5.3257,-4.82536 -12.4832,-7.57372 -19.684,-7.35791 z m 1.166,68.69922 c -7.565,0.36991 -14.8866,3.36913 -20.7672,8.04582 -2.9632,2.32814 -5.4309,5.19694 -8.1415,7.79987 -13.1732,13.19766 -26.4147,26.32601 -39.5068,39.60507 -6.4975,7.12692 -10.1518,17.01463 -9.3618,26.61174 0.5396,7.2496 4.0896,14.39483 9.6769,19.16376 4.5751,3.90044 10.3643,6.19576 16.3348,6.65069 7.5408,0.63253 15.2994,-1.62006 21.6579,-5.74424 3.7192,-2.31486 6.778,-5.48265 9.8077,-8.6043 8.4402,-8.41074 40.3799,-41.60573 40.3799,-41.60573 0,0 -25.3587,16.81871 -30.2654,15.35857 -1.2893,-0.36628 -2.5638,-0.78582 -3.8086,-1.2832 -7.2757,7.26944 -14.4743,14.61453 -21.8835,21.74826 -4.3979,3.93678 -10.5987,6.11491 -16.4739,4.96463 -4.447,-0.92927 -8.4454,-4.20236 -9.7936,-8.60434 -1.8199,-5.45146 -0.3279,-11.58215 2.9348,-16.1798 2.4941,-3.5327 5.8867,-6.2765 8.8337,-9.40706 12.8335,-12.79483 25.5925,-25.66541 38.5045,-38.38066 4.4107,-3.82307 10.5103,-6.06289 16.3448,-4.89511 0.8913,0.18366 1.7554,0.47585 2.6074,0.79119 0.031,-5.17383 0.061,-10.34766 0.092,-15.52149 -2.3895,-0.42045 -4.7387,-0.62167 -7.1719,-0.51367 z"
       sodipodi:nodetypes="scccccccccscccccccccccccsssccccccccccccccccccccss" /><circle
       style="display:inline;fill:none;stroke:none;stroke-width:15;stroke-linecap:round;stroke-linejoin:miter;stroke-dasharray:none"
       id="circle202"
       cx="3217.8728"
       cy="466.8631"
       r="127.07587"
       inkscape:label="outer circle"
       inkscape:export-filename="../img/oixs-small-2.svg"
       inkscape:export-xdpi="3.4441197"
       inkscape:export-ydpi="3.4441197" /><g
       id="g204"
       transform="translate(-342.72119,158.15778)"
       style="display:inline"><circle
         style="display:none;fill:#ffffff;stroke:none;stroke-width:15.0001;stroke-linecap:round;stroke-linejoin:miter;stroke-dasharray:none"
         id="circle203"
         cx="3560.594"
         cy="308.70532"
         r="147.34975" /><path
         style="display:inline;fill:none;stroke:#d45500;stroke-width:5;stroke-linecap:butt;stroke-linejoin:miter;stroke-dasharray:none;marker-end:url(#RoundedArrow)"
         id="path203"
         sodipodi:type="arc"
         sodipodi:cx="3560.5938"
         sodipodi:cy="308.70532"
         sodipodi:rx="77.907478"
         sodipodi:ry="77.907478"
         sodipodi:start="5.5795403"
         sodipodi:end="1.2814188"
         sodipodi:open="true"
         sodipodi:arc-type="arc"
         d="m 3619.9973,258.29909 a 77.907478,77.907478 0 0 1 15.2756,72.60094 77.907478,77.907478 0 0 1 -52.4478,52.47351" /><path
         id="path204"
         style="color:#000000;display:inline;fill:#d45500;stroke-width:1;-inkscape-stroke:none"
         d="m 3611.7381,238.03399 c 0.1161,8.40467 0.1739,16.81054 0.1736,25.21666 8.9762,10.13433 14.9994,22.96432 16.7257,37.20584 3.8575,31.82385 -14.7496,61.96245 -44.9282,72.77387 l 6.3169,17.63625 c 38.3142,-13.72597 62.1032,-52.2606 57.2058,-92.66353 -3.0026,-24.77118 -16.3181,-46.26915 -35.4938,-60.16909 z" /></g></g></svg>
