<?xml version="1.0" encoding="UTF-8" standalone="no"?>
<!-- Created with Inkscape (http://www.inkscape.org/) -->

<svg
   width="189.9924mm"
   height="189.98581mm"
   viewBox="0 0 189.9924 189.98581"
   version="1.1"
   id="svg1"
   xml:space="preserve"
   inkscape:version="1.3 (0e150ed6c4, 2023-07-21)"
   sodipodi:docname="oixs-logo.svg"
   xmlns:inkscape="http://www.inkscape.org/namespaces/inkscape"
   xmlns:sodipodi="http://sodipodi.sourceforge.net/DTD/sodipodi-0.dtd"
   xmlns="http://www.w3.org/2000/svg"
   xmlns:svg="http://www.w3.org/2000/svg"><sodipodi:namedview
     id="namedview1"
     pagecolor="#ffffff"
     bordercolor="#666666"
     borderopacity="1.0"
     inkscape:showpageshadow="2"
     inkscape:pageopacity="0.0"
     inkscape:pagecheckerboard="0"
     inkscape:deskcolor="#d1d1d1"
     inkscape:document-units="mm"
     inkscape:zoom="0.14142291"
     inkscape:cx="2899.106"
     inkscape:cy="-505.57579"
     inkscape:current-layer="layer5" /><defs
     id="defs1" /><g
     inkscape:groupmode="layer"
     id="layer5"
     inkscape:label="Layer 5"
     transform="translate(-1890.7381,427.9428)"><!--!Font Awesome Free 6.5.1 by @fontawesome - https://fontawesome.com License - https://fontawesome.com/license/free Copyright 2024 Fonticons, Inc.--><g
       id="g134"
       transform="translate(-0.937271,-0.99612294)"><path
         id="path132"
         style="color:#000000;fill:#000080;stroke:none;stroke-linecap:round;-inkscape-stroke:none"
         d="m 1997.7795,-426.93303 c -9.2754,0.1596 -18.6423,4.15349 -25.2674,10.82486 -5.8821,5.81686 -9.6889,13.62936 -10.6838,21.76303 -0.4298,3.40443 -0.2002,6.94589 -0.2658,10.40585 0,5.99192 -0.037,11.98666 0.042,17.9768 0.2548,3.40742 3.1088,6.38942 6.5132,6.75237 3.5669,0.53815 7.2636,-1.92571 8.1525,-5.41815 0.5536,-2.29573 0.1765,-4.67733 0.2913,-7.0114 0.03,-6.65438 -0.071,-13.31193 0.068,-19.96422 0.481,-7.16247 4.7103,-13.97494 11.0009,-17.46868 7.5299,-4.30737 17.5879,-3.72488 24.4855,1.57539 5.5537,4.15406 8.8592,11.085 8.6556,18.01142 0.033,11.56986 0.011,23.14013 0.014,34.71015 -0.079,2.75853 0.1397,5.53463 -0.1968,8.27945 -0.8797,6.77269 -5.0778,13.0457 -11.1037,16.30029 -7.109,3.92354 -16.3909,3.62341 -23.1254,-0.97009 -2.0535,-1.36144 -3.7724,-3.14399 -5.4102,-4.96568 -2.5581,-2.48743 -6.9366,-2.68599 -9.7016,-0.42281 -3.0193,2.23174 -3.8031,6.87045 -1.6657,9.96165 1.3676,1.99779 3.1789,3.65131 4.9703,5.26208 7.2313,6.21083 16.9598,9.4351 26.4289,8.80155 9.3214,-0.53245 18.4958,-4.88293 24.8849,-11.83423 4.9041,-5.24723 8.1784,-11.94394 9.393,-18.94072 0.7441,-3.95755 0.4799,-8.04773 0.5285,-12.11094 -0.014,-12.06308 0.043,-24.12751 -0.043,-36.18974 -0.3829,-9.02264 -4.3363,-17.93866 -10.7569,-24.34892 -6.4145,-6.53612 -15.4045,-10.5311 -24.5019,-10.95392 -0.9019,-0.0386 -1.8046,-0.0515 -2.707,-0.0254 z m -69.9258,69.87305 c -9.284,0.17519 -18.6557,4.18834 -25.2734,10.88086 -5.8516,5.79891 -9.6408,13.6378 -10.627,21.69531 -0.8924,7.10699 0.3827,14.48721 3.5508,20.88281 3.6141,7.40111 9.8937,13.61818 17.4096,17.15908 5.0914,2.45081 10.7502,3.67956 16.3992,3.58974 13.7519,4.5e-4 27.5046,0.0431 41.2562,-0.025 9.5002,-0.34132 18.7633,-4.5324 25.285,-11.37763 1.7365,-1.90568 3.6089,-3.92402 4.7203,-6.36568 1.3362,-3.4184 -0.2601,-7.71114 -3.6041,-9.29373 -2.8529,-1.51815 -6.6285,-0.89097 -8.8278,1.48065 -1.1549,1.28385 -2.0208,2.81268 -3.2971,3.99625 -4.0842,4.21192 -9.9136,6.63729 -15.7787,6.5874 -13.8308,-0.003 -27.6628,0.0401 -41.4932,-0.0299 -7.2532,-0.30308 -14.2382,-4.4559 -17.8643,-10.76415 -4.4081,-7.46039 -3.9636,-17.51007 1.2176,-24.48161 4.1301,-5.71412 11.1754,-9.13602 18.216,-8.93049 11.887,-0.0309 23.7745,-0.0167 35.6617,-0.009 3.3133,0.0519 6.6937,-0.22241 9.9192,0.71622 4.3862,1.13422 8.3748,3.6732 11.2857,7.14264 1.1895,1.45842 2.8731,2.50395 4.7454,2.78135 3.3762,0.5836 6.9876,-1.45682 8.1546,-4.69357 1.1298,-2.77377 0.3462,-5.91675 -1.6683,-8.04474 -4.7729,-5.55694 -11.2766,-9.66251 -18.3814,-11.59645 -3.644,-1.01834 -7.3301,-1.3892 -11.133,-1.30307 -13.291,-0.0128 -26.582,-0.009 -39.873,0.003 z" /><path
         id="path133"
         style="color:#000000;fill:#803300;stroke-linecap:round;-inkscape-stroke:none"
         d="m 2035.8605,-403.73866 c 1.3023,3.38974 2.167,6.95172 2.3099,10.58282 0.102,3.04216 0.1589,6.08509 0.2,9.12813 9.785,7.64247 17.6998,17.752 22.6694,29.74961 11.4623,27.67241 5.1387,59.4672 -16.0408,80.64675 -21.1796,21.17954 -52.9743,27.50317 -80.6468,16.04088 -11.963,-4.95525 -22.0487,-12.83869 -29.684,-22.58415 -3.276,0.0305 -6.5508,0.0142 -9.8164,-0.27233 -3.4157,-0.28935 -6.757,-1.08758 -9.9462,-2.29185 9.5669,17.2034 24.7499,31.15541 43.7064,39.00744 33.2377,13.7675 71.553,6.14616 96.992,-19.29288 25.4391,-25.43904 33.061,-63.75638 19.2934,-96.99408 -7.8564,-18.96714 -21.8202,-34.15498 -39.0369,-43.72034 z m 1.9911,60.58494 c -0.5265,3.14946 -1.393,6.23826 -2.652,9.1829 -2.1525,5.18191 -5.5062,9.78878 -9.6315,13.56455 -1.1287,6.69126 -4.2772,13.02757 -9.2976,18.04799 -4.9979,4.99785 -11.3,8.14163 -17.9581,9.28367 -5.9152,6.50242 -14.1306,10.88444 -22.8069,12.30726 17.7397,6.73736 37.8928,2.49394 51.3721,-10.98537 13.4872,-13.48712 17.728,-33.65395 10.974,-51.401 z"
         sodipodi:nodetypes="cccssscccsssccccsccsc" /></g></g></svg>
