<?xml version="1.0" encoding="UTF-8" standalone="no"?>
<!-- Created with Inkscape (http://www.inkscape.org/) -->

<svg
   width="235.99644mm"
   height="235.99641mm"
   viewBox="0 0 235.99644 235.99641"
   version="1.1"
   id="svg1"
   xml:space="preserve"
   inkscape:version="1.3 (0e150ed6c4, 2023-07-21)"
   sodipodi:docname="oixs-logo.svg"
   xmlns:inkscape="http://www.inkscape.org/namespaces/inkscape"
   xmlns:sodipodi="http://sodipodi.sourceforge.net/DTD/sodipodi-0.dtd"
   xmlns="http://www.w3.org/2000/svg"
   xmlns:svg="http://www.w3.org/2000/svg"><sodipodi:namedview
     id="namedview1"
     pagecolor="#ffffff"
     bordercolor="#666666"
     borderopacity="1.0"
     inkscape:showpageshadow="2"
     inkscape:pageopacity="0.0"
     inkscape:pagecheckerboard="0"
     inkscape:deskcolor="#d1d1d1"
     inkscape:document-units="mm"
     inkscape:zoom="0.08"
     inkscape:cx="13643.75"
     inkscape:cy="1093.75"
     inkscape:current-layer="layer7"
     showgrid="false" /><defs
     id="defs1"><marker
       style="overflow:visible"
       id="RoundedArrow"
       refX="0"
       refY="0"
       orient="auto-start-reverse"
       inkscape:stockid="Rounded arrow"
       markerWidth="1"
       markerHeight="1"
       viewBox="0 0 1 1"
       inkscape:isstock="true"
       inkscape:collect="always"
       preserveAspectRatio="xMidYMid"><path
         transform="scale(0.7)"
         d="m -0.21114562,-4.1055728 6.42229122,3.21114561 a 1,1 90 0 1 0,1.78885438 L -0.21114562,4.1055728 A 1.236068,1.236068 31.717474 0 1 -2,3 v -6 a 1.236068,1.236068 148.28253 0 1 1.78885438,-1.1055728 z"
         style="fill:context-stroke;fill-rule:evenodd;stroke:none"
         id="path222" /></marker><filter
       style="color-interpolation-filters:sRGB"
       inkscape:label="Drop Shadow"
       id="filter198"
       x="-0.036372448"
       y="-0.032906124"
       width="1.0727449"
       height="1.0658122"><feFlood
         result="flood"
         in="SourceGraphic"
         flood-opacity="0.650980"
         flood-color="rgb(0,0,0)"
         id="feFlood197" /><feGaussianBlur
         result="blur"
         in="SourceGraphic"
         stdDeviation="3.000000"
         id="feGaussianBlur197" /><feOffset
         result="offset"
         in="blur"
         dx="-0.000000"
         dy="0.000000"
         id="feOffset197" /><feComposite
         result="comp1"
         operator="in"
         in="flood"
         in2="offset"
         id="feComposite197" /><feComposite
         result="comp2"
         operator="over"
         in="SourceGraphic"
         in2="comp1"
         id="feComposite198" /></filter></defs><g
     inkscape:groupmode="layer"
     id="layer7"
     inkscape:label="Layer 7"
     transform="translate(-3099.8743,-348.86486)"><rect
       style="display:none;fill:#ffffff;stroke:none;stroke-width:9.26042;stroke-dasharray:none"
       id="rect131"
       width="490.56702"
       height="423.05975"
       x="2939.6946"
       y="236.29636" /><path
       id="path184"
       style="display:inline;fill:#e6e6e6;stroke:none;stroke-width:15;stroke-linecap:round;stroke-linejoin:miter;stroke-dasharray:none;filter:url(#filter198)"
       d="m 3217.8723,357.39989 v 0.0222 c -0.4403,-0.005 -0.8806,-0.0253 -1.3208,-0.016 h -5e-4 c -14.1099,0.55504 -27.4481,9.19233 -34.1235,21.57181 -4.8291,8.65546 -6.532,18.73927 -6.2586,28.56312 0.021,14.29933 0.042,28.59883 0.062,42.89815 -12.7213,12.86084 -25.8053,25.37964 -37.9026,38.84208 -7.9951,10.94559 -11.0547,25.53754 -7.4393,38.6736 2.3166,8.26689 7.6125,15.54909 14.5066,20.62975 a 109.4634,109.4634 0 0 0 127.2088,13.07672 109.4634,109.4634 0 0 0 51.0015,-123.12943 109.4634,109.4634 0 0 0 -101.4878,-80.85398 c -1.2738,-0.14913 -2.5542,-0.22341 -3.836,-0.25115 a 109.4634,109.4634 0 0 0 -0.4098,-0.0269 z m 0,37.3972 v 31.3831 c -1.4518,0.0553 -2.9015,0.17015 -4.3434,0.34675 0.046,-9.27093 -0.3068,-18.58285 0.6439,-27.80192 0.5498,-1.75033 1.788,-3.57459 3.6995,-3.92793 z m 0,68.72449 v 3.3414 l -2.7719,2.77192 c -0.2425,-0.41535 -0.4678,-0.83836 -0.6796,-1.23455 -0.3567,-0.75762 -0.674,-1.53196 -1.0138,-2.29702 1.2866,-1.1182 2.7973,-2.1569 4.4653,-2.58175 z m -31.6585,29.59716 c 0.1895,0.22722 0.3789,0.4544 0.5684,0.68161 0.6382,0.74351 1.312,1.45544 1.986,2.16679 l -21.8788,21.87929 c -0.6494,-1.04674 -0.4725,-2.51551 -0.062,-3.63389 1.6737,-4.09094 5.2533,-6.89896 8.2775,-9.96063 3.665,-3.74793 7.4107,-7.4179 11.1094,-11.13317 z" /><path
       style="fill:#e6e6e6;stroke:none;stroke-width:0.264583px;stroke-linecap:butt;stroke-linejoin:miter;stroke-opacity:1"
       d="m 3145.3729,518.82684 26.2242,26.22432 73.5401,-73.54017 v -97.06175 h -44.5323 v 90.20532 z"
       id="path185" /><circle
       style="display:inline;fill:none;stroke:none;stroke-width:15;stroke-linecap:round;stroke-linejoin:miter;stroke-dasharray:none"
       id="circle185"
       cx="3217.8726"
       cy="466.86307"
       r="117.99821"
       inkscape:label="outer circle" /><path
       id="path187"
       style="color:#000000;display:inline;fill:#000080;stroke:none;stroke-linecap:round;-inkscape-stroke:none"
       d="m 3217.0937,368.47453 c -8.6086,0.17782 -16.8189,4.72936 -22.0352,11.49518 -4.5316,5.76075 -7.1162,13.0211 -7.6308,20.22357 -0.2068,3.42752 -0.039,6.96301 -0.079,10.43826 0.022,11.02382 0,22.04767 0.01,33.07151 4.3448,-4.34771 9.3754,-8.07867 15.0254,-10.54688 -0.059,-4.64616 0,-9.30406 -0.029,-13.95468 0.011,-6.30889 -0.028,-12.6221 0.1352,-18.92773 0.5259,-5.66988 3.2545,-11.37303 8.1135,-14.55147 4.2147,-2.93175 10.2153,-2.98907 14.4447,-0.0532 4.9029,3.15201 7.686,8.88094 8.1915,14.58016 0.3365,3.79395 0.053,7.60719 0.1523,11.40962 -0.015,17.96892 0.046,35.9401 -0.093,53.90749 -0.3955,5.88533 -3.1665,11.84646 -8.1799,15.16417 -4.2345,2.85303 -10.2027,2.97613 -14.4243,0.0273 -3.3875,-2.16168 -5.7158,-5.65877 -7.1269,-9.36338 -1.5899,1.69377 -3.3132,3.26953 -4.9458,4.92721 -2.0845,2.05877 -4.1689,4.11754 -6.2534,6.17631 3.713,6.3982 9.7904,11.77743 16.8945,14.09179 8.3657,2.76991 17.9109,1.23447 25.0228,-3.97776 8.805,-6.41099 13.9366,-17.24342 14.0463,-28.05953 0.1564,-6.09571 -0.012,-12.19403 0.058,-18.29083 -0.012,-15.4094 0.058,-30.82063 -0.1035,-46.22873 -0.6332,-9.14174 -4.6403,-18.04897 -11.5061,-24.20047 -5.3257,-4.82536 -12.4832,-7.57372 -19.684,-7.35791 z m 1.166,68.69922 c -7.565,0.36991 -14.8866,3.36913 -20.7672,8.04582 -2.9632,2.32814 -5.4309,5.19694 -8.1415,7.79987 -13.1732,13.19766 -26.4147,26.32601 -39.5068,39.60507 -6.4975,7.12692 -10.1518,17.01463 -9.3618,26.61174 0.5396,7.2496 4.0896,14.39483 9.6769,19.16376 4.5751,3.90044 10.3643,6.19576 16.3348,6.65069 7.5408,0.63253 15.2994,-1.62006 21.6579,-5.74424 3.7192,-2.31486 6.778,-5.48265 9.8077,-8.6043 8.4402,-8.41074 16.8517,-16.85171 25.2805,-25.27451 -5.0547,0.62702 -10.2593,0.48749 -15.166,-0.97265 -1.2893,-0.36628 -2.5638,-0.78582 -3.8086,-1.2832 -7.2757,7.26944 -14.4743,14.61453 -21.8835,21.74826 -4.3979,3.93678 -10.5987,6.11491 -16.4739,4.96463 -4.447,-0.92927 -8.4454,-4.20236 -9.7936,-8.60434 -1.8199,-5.45146 -0.3279,-11.58215 2.9348,-16.1798 2.4941,-3.5327 5.8867,-6.2765 8.8337,-9.40706 12.8335,-12.79483 25.5925,-25.66541 38.5045,-38.38066 4.4107,-3.82307 10.5103,-6.06289 16.3448,-4.89511 0.8913,0.18366 1.7554,0.47585 2.6074,0.79119 0.031,-5.17383 0.061,-10.34766 0.092,-15.52149 -2.3895,-0.42045 -4.7387,-0.62167 -7.1719,-0.51367 z" /><path
       style="display:inline;fill:none;stroke:#d45500;stroke-width:5;stroke-linecap:butt;stroke-linejoin:miter;stroke-dasharray:none;marker-end:url(#RoundedArrow)"
       id="path188"
       sodipodi:type="arc"
       sodipodi:cx="3217.8723"
       sodipodi:cy="466.86304"
       sodipodi:rx="62.388592"
       sodipodi:ry="62.388592"
       sodipodi:start="5.5795403"
       sodipodi:end="1.2814188"
       sodipodi:open="true"
       sodipodi:arc-type="arc"
       d="m 3265.4429,426.49754 a 62.388592,62.388592 0 0 1 12.2327,58.1391 62.388592,62.388592 0 0 1 -42.0003,42.02098" /><path
       id="path189"
       style="color:#000000;fill:#d45500;-inkscape-stroke:none"
       d="m 3258.8292,410.26918 c 0.093,6.7305 0.1393,13.46195 0.139,20.1936 7.1882,8.11561 12.0116,18.38991 13.394,29.79457 3.0891,25.48466 -11.8115,49.61975 -35.9786,58.27758 l 5.0586,14.12316 c 30.6821,-10.99179 49.7324,-41.85047 45.8106,-74.20529 -2.4045,-19.83684 -13.0676,-37.05249 -28.4236,-48.18362 z" /><rect
       style="vector-effect:non-scaling-stroke;fill:#666666;stroke:none;stroke-width:0.264583;stroke-dasharray:none;-inkscape-stroke:hairline"
       id="rect189"
       width="15"
       height="14.707031"
       x="3299.741"
       y="459.50955"
       ry="5.6754513" /><rect
       style="vector-effect:non-scaling-stroke;fill:#666666;stroke:none;stroke-width:0.264583;stroke-dasharray:none;-inkscape-stroke:hairline"
       id="rect190"
       width="15"
       height="14.707031"
       x="2027.0756"
       y="2598.1553"
       ry="5.6754513"
       transform="rotate(-45)" /><rect
       style="vector-effect:non-scaling-stroke;fill:#666666;stroke:none;stroke-width:0.264583;stroke-dasharray:none;-inkscape-stroke:hairline"
       id="rect191"
       width="15"
       height="14.707031"
       x="2687.3279"
       y="-1952.6056"
       ry="5.6754513"
       transform="rotate(45)" /><rect
       style="vector-effect:non-scaling-stroke;fill:#666666;stroke:none;stroke-width:0.264583;stroke-dasharray:none;-inkscape-stroke:hairline"
       id="rect192"
       width="15"
       height="14.707031"
       x="548.67786"
       y="-3225.2253"
       ry="5.6754513"
       transform="rotate(90)" /></g></svg>
